<?xml version="1.0"?>
<svg xmlns="http://www.w3.org/2000/svg" width="170" height="125" viewBox="0 0 170 125" fill="none">
<g clip-path="url(#clip0_3_11)">
<path d="M163.4 86.6C165.6 86.6 169.9 86.6 169.9 86.6V94.4C169.9 94.4 161.5 94.4 159.8 94.4C156.5 94.4 153.3 92.8 154.2 93.2C149.5 91.1 147.7 86 147.3 80.3V15H157.9V31.3V31.4H168V39H157.9V39.1V81.1C158.1 85.3 160.6 86.6 163.4 86.6ZM104.1 80.6V44.8C103.8 24.6 139.4 24.5 138.8 45.3V62.5C138.8 63.6 137.9 64.4 136.9 64.4H114.7V81.1C114.8 89 128.4 88.9 128.4 81.1V73.1H138.9V80.6C139.4 101.3 103.8 100.8 104.1 80.6ZM128.2 56.5V44.8C128.2 37 114.7 37 114.5 44.8V56.5H128.2ZM83.6001 43.8C83.6001 36.5 71.2001 36.7 71.0001 44.1V94.4H55.7001V86.6H60.6001V39.2H54.8001V31.5H69.6001V37.2C69.6001 37.2 71.4001 34.5 76.1001 31.9C82.1001 28.6 88.0001 31.9 87.1001 31.5C91.8001 33.6 93.6001 38.7 94.0001 44.4V86.7H100.7V94.4H83.7001L83.6001 43.8ZM41.7001 0H49.3001V124.1H41.7001V0ZM5.4461e-05 80.6V44.8C-0.299946 24.6 35.3001 24.5 34.7001 45.3V51.5H24.3001L24.2001 44.8C24.2001 37.1 10.8001 37.3 10.5001 45.1V81.1C10.6001 89 24.2001 88.9 24.2001 81.1V73.1H34.7001V80.6C35.3001 101.3 -0.299946 100.8 5.4461e-05 80.6Z" fill="white"/>
</g>
<defs>
<clipPath id="clip0_3_11">
<rect width="169.9" height="124.1" fill="white"/>
</clipPath>
</defs>
</svg>
